<svg width="134" height="51" viewBox="0 0 134 51" fill="none" xmlns="http://www.w3.org/2000/svg">
<path d="M0 17H11.427L19.2872 36.0376H19.6835L27.5437 17H38.9707V50.6111H29.9877V31.1797H29.7234L22.1935 50.3485H16.7772L9.24729 31.0484H8.98309V50.6111H0V17Z" fill="black"/>
<path d="M59.901 39.5825V25.4028H69.0162V50.6111H60.3634V45.8189H60.0992C59.5487 47.4273 58.5855 48.6855 57.2094 49.5936C55.8333 50.4908 54.1985 50.9394 52.305 50.9394C50.5326 50.9394 48.9804 50.5345 47.6483 49.7249C46.3273 48.9153 45.298 47.7993 44.5604 46.3769C43.8338 44.9546 43.465 43.3243 43.454 41.4862V25.4028H52.5692V39.5825C52.5802 40.8298 52.8995 41.809 53.527 42.5202C54.1655 43.2313 55.0572 43.5869 56.2021 43.5869C56.9617 43.5869 57.6167 43.4283 58.1671 43.111C58.7286 42.7828 59.1579 42.3232 59.4551 41.7324C59.7634 41.1306 59.912 40.414 59.901 39.5825Z" fill="black"/>
<path d="M82.7674 17V50.6111H73.6522V17H82.7674Z" fill="black"/>
<path d="M102.538 25.4028V31.9675H85.8265V25.4028H102.538ZM89.063 19.3633H98.1782V42.5038C98.1782 42.8539 98.2387 43.1493 98.3598 43.39C98.4809 43.6197 98.6681 43.7948 98.9213 43.9152C99.1745 44.0246 99.4992 44.0793 99.8956 44.0793C100.171 44.0793 100.49 44.0465 100.853 43.9808C101.228 43.9152 101.503 43.8605 101.679 43.8167L103 50.1844C102.593 50.3048 102.009 50.4525 101.25 50.6275C100.501 50.8026 99.6093 50.9175 98.5745 50.9722C96.4829 51.0816 94.727 50.8682 93.3069 50.3321C91.8867 49.7851 90.8189 48.9262 90.1033 47.7555C89.3878 46.5848 89.041 45.1187 89.063 43.3572V19.3633Z" fill="black"/>
<path d="M109 31H118V51H109V31Z" fill="#1A3DB9"/>
<path d="M125 31H134V51H125V31Z" fill="#1A3DB9"/>
<path d="M118 21.5C118 23.9853 115.985 26 113.5 26C111.015 26 109 23.9853 109 21.5C109 19.0147 111.015 17 113.5 17C115.985 17 118 19.0147 118 21.5Z" fill="#1A3DB9"/>
<path d="M134 21.5C134 23.9853 131.761 26 129 26C126.239 26 124 23.9853 124 21.5C124 19.0147 126.239 17 129 17C131.761 17 134 19.0147 134 21.5Z" fill="#1A3DB9"/>
<path fill-rule="evenodd" clip-rule="evenodd" d="M127.11 11C127.111 10.9614 127.111 10.9227 127.111 10.8839C127.111 7.54445 124.375 4.83729 121 4.83729C117.625 4.83729 114.889 7.54445 114.889 10.8839C114.889 10.9227 114.889 10.9614 114.89 11H110.001C110 10.9613 110 10.9226 110 10.8839C110 4.87289 114.925 0 121 0C127.075 0 132 4.87289 132 10.8839C132 10.9226 132 10.9613 131.999 11H127.11Z" fill="#1A3DB9"/>
</svg>
