<svg width="134" height="34" viewBox="0 0 134 34" fill="none" xmlns="http://www.w3.org/2000/svg">
<path d="M0 0H11.427L19.2872 19.0376H19.6835L27.5437 0H38.9707V33.6111H29.9877V14.1797H29.7234L22.1935 33.3485H16.7772L9.24729 14.0484H8.98309V33.6111H0V0Z" fill="black"/>
<path d="M59.901 22.5825V8.40278H69.0162V33.6111H60.3634V28.8189H60.0992C59.5487 30.4273 58.5855 31.6855 57.2094 32.5936C55.8333 33.4908 54.1985 33.9394 52.305 33.9394C50.5326 33.9394 48.9804 33.5345 47.6483 32.7249C46.3273 31.9153 45.298 30.7993 44.5604 29.3769C43.8338 27.9546 43.465 26.3243 43.454 24.4862V8.40278H52.5692V22.5825C52.5802 23.8298 52.8995 24.809 53.527 25.5202C54.1655 26.2313 55.0572 26.5869 56.2021 26.5869C56.9617 26.5869 57.6167 26.4283 58.1671 26.111C58.7286 25.7828 59.1579 25.3232 59.4551 24.7324C59.7634 24.1306 59.912 23.414 59.901 22.5825Z" fill="black"/>
<path d="M82.7674 0V33.6111H73.6522V0H82.7674Z" fill="black"/>
<path d="M102.538 8.40278V14.9675H85.8265V8.40278H102.538ZM89.063 2.36328H98.1782V25.5038C98.1782 25.8539 98.2387 26.1493 98.3598 26.39C98.4809 26.6197 98.6681 26.7948 98.9213 26.9152C99.1745 27.0246 99.4992 27.0793 99.8956 27.0793C100.171 27.0793 100.49 27.0465 100.853 26.9808C101.228 26.9152 101.503 26.8605 101.679 26.8167L103 33.1844C102.593 33.3048 102.009 33.4525 101.25 33.6275C100.501 33.8026 99.6093 33.9175 98.5745 33.9722C96.4829 34.0816 94.727 33.8682 93.3069 33.3321C91.8867 32.7851 90.8189 31.9262 90.1033 30.7555C89.3878 29.5848 89.041 28.1187 89.063 26.3572V2.36328Z" fill="black"/>
<path d="M109 14H118V34H109V14Z" fill="#1A3DB9"/>
<path d="M125 14H134V34H125V14Z" fill="#1A3DB9"/>
<path d="M118 4.5C118 6.98528 115.985 9 113.5 9C111.015 9 109 6.98528 109 4.5C109 2.01472 111.015 0 113.5 0C115.985 0 118 2.01472 118 4.5Z" fill="#1A3DB9"/>
<path d="M134 4.5C134 6.98528 131.761 9 129 9C126.239 9 124 6.98528 124 4.5C124 2.01472 126.239 0 129 0C131.761 0 134 2.01472 134 4.5Z" fill="#1A3DB9"/>
</svg>
